<svg xmlns="http://www.w3.org/2000/svg" viewBox="0 0 20.59 17"><defs><style>.cls-1{fill:#ee2a7b;}</style></defs><title>clip</title><g id="Layer_2" data-name="Layer 2"><g id="Layer_1-2" data-name="Layer 1"><path class="cls-1" d="M4,0A4,4,0,1,0,7.63,5.65l4.62,3.2-4.56,2.6a4,4,0,1,0,.25,2.17l6.13-3.51,5.36,3.71,1.14-1.64L7.94,3.44A4,4,0,0,0,4,0ZM4,15a2,2,0,1,1,2-2A2,2,0,0,1,4,15ZM4,6A2,2,0,1,1,6,4,2,2,0,0,1,4,6Z"/><rect class="cls-1" x="15.44" y="4.5" width="5.05" height="2" transform="translate(0.24 11.74) rotate(-36.42)"/></g></g></svg>