<svg xmlns="http://www.w3.org/2000/svg"><symbol id="sprite-clip" viewBox="0 0 20.59 17"><defs><style>.cls-1{fill:#ee2a7b}</style></defs><title>clip</title><g id="Layer_2" data-name="Layer 2"><g id="Layer_1-2" data-name="Layer 1"><path class="cls-1" d="M4 0a4 4 0 103.63 5.65l4.62 3.2-4.56 2.6a4 4 0 10.25 2.17l6.13-3.51 5.36 3.71 1.14-1.64L7.94 3.44A4 4 0 004 0zm0 15a2 2 0 112-2 2 2 0 01-2 2zm0-9a2 2 0 112-2 2 2 0 01-2 2z"/><path class="cls-1" transform="rotate(-36.42 17.963 5.505)" d="M15.44 4.5h5.05v2h-5.05z"/></g></g></symbol><symbol id="sprite-close-tag" viewBox="0 0 20 20"><title>close-tag</title><g data-name="Layer 2"><g data-name="Layer 1"><circle cx="10" cy="10" r="10" fill="#262626"/><path fill="#ee2a7b" d="M14.91 5.88l-.78-.79L10 9.21 5.88 5.09l-.79.79L9.21 10l-4.12 4.13.79.78L10 10.79l4.13 4.12.78-.78L10.79 10l4.12-4.12z"/></g></g></symbol><symbol id="sprite-close" viewBox="0 0 36 36"><title>close</title><g data-name="Layer 2"><g data-name="Layer 1"><circle cx="18" cy="18" r="18" fill="#262626"/><path fill="#ee2a7b" d="M26.84 10.57l-1.41-1.41L18 16.59l-7.43-7.43-1.41 1.41L16.59 18l-7.43 7.43 1.41 1.41L18 19.41l7.43 7.43 1.41-1.41L19.41 18l7.43-7.43z"/></g></g></symbol><symbol id="sprite-description" viewBox="0 0 16 16"><title>description</title><g data-name="Layer 2"><path d="M10.44 9.34a5 5 0 10-4.88 0A7.18 7.18 0 000 16h2c0-2.76 2.69-5 6-5s6 2.24 6 5h2a7.18 7.18 0 00-5.56-6.66zM8 2a3 3 0 11-3 3 3 3 0 013-3z" fill="#ee2a7b" data-name="Layer 1"/></g></symbol><symbol id="sprite-grate" viewBox="0 0 32.557 25.73"><title>grate</title><g data-name="Group 961" transform="translate(-4998.381 -1668.448)" fill="#f4f4f4"><circle data-name="Ellipse 8663" cx="5" cy="5" r="5" transform="translate(4998.381 1668.448)"/><circle data-name="Ellipse 8664" cx="5" cy="5" r="5" transform="translate(5014.082 1668.448)"/><circle data-name="Ellipse 8665" cx="5" cy="5" r="5" transform="translate(5006.231 1682.181)"/><circle data-name="Ellipse 8666" cx="5" cy="5" r="5" transform="translate(5021.933 1682.181)"/></g></symbol><symbol id="sprite-hammer-video" viewBox="0 0 189.74 21.78"><defs><style>.cls-1{fill:#ee2a7b}</style></defs><title>hammer-video</title><g id="Layer_2" data-name="Layer 2"><path class="cls-1" d="M111.81 20.54c.77-.25.74-.22.44-.75l-4.64-8.09a5.82 5.82 0 003.25-5.58c0-6.12-5.37-6.12-7.59-6.12h-5.52c-.53 0-.53 0-.53.53v19.94c0 .56 0 .56.53.56h4.16c.5 0 .5 0 .5-.56v-7.65h.8l4.43 8.58c.21.43.24.47.92.25zM103 4c1.65 0 2.92.09 2.92 2.19 0 2.25-1.21 2.53-3.22 2.53h-.24V4zM86.55 7.81h5.17c.5 0 .5 0 .5.56v3.06c0 .52 0 .52-.53.52h-5.14v4.91H93c.5 0 .5 0 .5.53v3.05c0 .56 0 .56-.5.56H82.18c-.5 0-.5 0-.5-.56V.53c0-.53 0-.53.5-.53h11c.65 0 .71 0 .53.53l-1 3.05c-.14.47-.11.47-.53.47h-5.7zM73.41 21c-.51 0-.54 0-.54-.56l-.29-11.08c-.65 2-1.51 5-2 6.42-.18.56-.18.56-.59.56h-3c-.65 0-.65 0-.79-.53-.39-1.39-1.21-4.48-1.81-6.45l-.29 11.11c0 .56 0 .56-.62.56h-3.69c-.51 0-.51 0-.48-.56L60.26.68c0-.68 0-.68.74-.68h3.63c.68 0 .68 0 1 .9 0 0 2.45 7.59 2.83 8.89L71.57.9c.3-.87.24-.9.89-.9H76c.77 0 .74 0 .77.68l.89 19.79c0 .56 0 .56-.47.56zm-21.86 0c-.57 0-.6 0-.6-.56l-.26-11.08c-.62 2-1.51 5-1.92 6.42-.18.56-.18.56-.65.56h-3c-.62 0-.59 0-.76-.53-.45-1.39-1.19-4.48-1.87-6.45l-.32 11.11c0 .56 0 .56-.59.56H37.9c-.48 0-.48 0-.45-.56L38.37.68c0-.68 0-.68.74-.68h3.66c.65 0 .65 0 .95.9 0 0 2.45 7.59 2.83 8.89L49.65.9C50 0 50 0 50.57 0h3.57c.74 0 .71 0 .74.68l.92 19.79c0 .56 0 .56-.53.56zm-17.08 0c.65 0 .62 0 .41-.65L28.5.28C28.41 0 28.38 0 28.12 0H24c-.38 0-.41 0-.5.28l-6.4 20.13c-.21.62-.18.62.24.62h4.49c.56 0 .56 0 .68-.46l1.27-4.79h4.4c.41 1.57 1.33 4.76 1.33 4.76.15.49.12.49.56.49zM25.84 6l1.27 6h-2.59zM10.28 21c-.56 0-.56 0-.56-.56v-8.15H5.14v8.18c0 .56 0 .56-.47.56H.53C0 21 0 21 0 20.47V.53C0 0 0 0 .53 0h4.14c.47 0 .47 0 .47.53V8h4.58V.53c0-.53 0-.53.56-.53h4.13c.5 0 .5 0 .5.53v19.94c0 .56 0 .56-.5.56zm119.84-.32c-.06.27-.15.33-.45.33h-2.1c-.33 0-.36 0-.45-.33L121.9 1.11c-.06-.18-.06-.18-.06-.24s.09-.18.36-.27l1.68-.39h.09a.33.33 0 01.15 0c.12 0 .18.12.24.36l3.81 15.87c.15.69.21 1 .33 1.69l.12.69c.15-.87.33-1.77.45-2.32L133 .51c.06-.24.12-.33.27-.33a.66.66 0 01.24 0l1.62.39c.24.06.33.12.33.24v.27zm8.52-18.31c-.36 0-.42-.06-.42-.42V.84c0-.36.06-.42.42-.42h7.77c.36 0 .42.06.42.42V2c0 .36-.06.42-.42.42h-2.67v16.64h2.67c.36 0 .42.06.42.42v1.11c0 .36-.06.42-.42.42h-7.77c-.36 0-.42-.06-.42-.42v-1.11c0-.36.06-.42.42-.42h2.64V2.37zM153.47 21h-3.4c-.36 0-.42-.06-.42-.42V.84c0-.36.06-.42.42-.42h3.13c2.64 0 4.08.33 5.34 1.2 2.16 1.47 3.33 4.56 3.33 8.73 0 7.15-2.79 10.65-8.4 10.65zm3.21-17.86a6.86 6.86 0 00-3.33-.6h-1.24v16.34h1.54c2.34 0 3.3-.42 4.26-1.84s1.32-3.45 1.32-6.69c0-3.99-.81-6.27-2.55-7.2zM174.41.9L174 2.22a.45.45 0 01-.45.33h-6.66V9.3h5.88c.36 0 .42.06.42.42v1.17c0 .36-.06.42-.42.42h-5.88v7.57H174c.36 0 .42.06.42.42v1.29c0 .36-.06.42-.42.42h-9.21c-.39 0-.42 0-.42-.42V.84c0-.36.06-.42.42-.42h9.24c.3 0 .42.06.42.21a.8.8 0 01-.04.27zm8.4 20.53c-4.32 0-6.6-3.63-6.6-10.6 0-7.17 2.37-10.83 7-10.83 4.26 0 6.51 3.69 6.51 10.68s-2.38 10.75-6.91 10.75zm3.12-17.68A3 3 0 00183 2a3.34 3.34 0 00-3.1 1.9 16.73 16.73 0 00-1 6.75 16.65 16.65 0 001.17 7 3 3 0 002.93 1.77 3.26 3.26 0 003.09-1.9 16.8 16.8 0 001-6.63c-.02-3.21-.41-5.64-1.16-7.14z" id="Layer_1-2" data-name="Layer 1"/></g></symbol><symbol id="sprite-next" viewBox="0 0 36 36"><title>next</title><g data-name="Layer 2"><g data-name="Layer 1"><circle cx="18" cy="18" r="18" fill="#fff"/><path fill="#ee2a7b" d="M29.31 18L18 29.31l-1.41-1.41 8.9-8.9H6v-2h19.49l-8.9-8.9L18 6.69 29.31 18z"/></g></g></symbol><symbol id="sprite-related" viewBox="0 0 18 16.97"><title>related</title><g data-name="Layer 2"><path d="M5.12 5l12.12-3-.48-2-16 4L1 5H0v12h18V5zM10 9V7h2v2zM4 9H2V7h2zm2-2h2v2H6zm10 8H2v-4h14zm0-6h-2V7h2z" fill="#ee2a7b" data-name="Layer 1"/></g></symbol><symbol id="sprite-search" viewBox="0 0 22.45 23.45"><title>search</title><g data-name="Layer 2"><g data-name="Layer 1"><g data-name="Group 874"><path data-name="Path 780" d="M15.89 14.77A8.9 8.9 0 0018 9a9 9 0 10-9 9 8.89 8.89 0 004.6-1.28l6.73 6.73 2.12-2.12zM2 9a7 7 0 117 7 7 7 0 01-7-7z" fill="#ee2a7b"/></g></g></g></symbol><symbol id="sprite-share" viewBox="0 0 16.41 14.71"><title>share</title><g data-name="Layer 2"><path d="M10.71 0L9.29 1.41l3.3 3.3H10c-9.89 0-10 9.9-10 10h2c0-.33.09-8 8-8h2.59L9.29 10l1.42 1.41 5.7-5.7z" fill="#ee2a7b" data-name="Layer 1"/></g></symbol><symbol id="sprite-transcript" viewBox="0 0 19 14.56"><defs><style>.cls-1{fill:#ee2a7b}</style></defs><title>transcript</title><g id="Layer_2" data-name="Layer 2"><path class="cls-1" d="M0 2h10v2H0zm0 4h10v2H0zm0 4h10v2H0zM19 0h-7v11h.52l2.86 3.56L18.46 11H19zm-5 2h3v7h-3z" id="Layer_1-2" data-name="Layer 1"/></g></symbol></svg>