<svg version="1.1" xmlns="http://www.w3.org/2000/svg" width="39" height="32" viewBox="0 0 39 32"><path d="M12.383 32c14.859 0 22.985-12.31 22.985-22.985 0-0.35-0.007-0.698-0.023-1.044 1.577-1.14 2.948-2.563 4.030-4.183-1.448 0.643-3.005 1.076-4.639 1.272 1.668-1 2.948-2.582 3.552-4.469-1.561 0.925-3.289 1.598-5.129 1.961-1.474-1.57-3.573-2.552-5.897-2.552-4.462 0-8.079 3.618-8.079 8.078 0 0.634 0.071 1.25 0.21 1.842-6.714-0.337-12.667-3.552-16.651-8.44-0.694 1.194-1.094 2.581-1.094 4.060 0 2.803 1.426 5.277 3.595 6.724-1.325-0.041-2.57-0.405-3.659-1.011-0.002 0.034-0.002 0.068-0.002 0.103 0 3.913 2.785 7.179 6.481 7.92-0.678 0.185-1.392 0.284-2.13 0.284-0.52 0-1.027-0.052-1.519-0.146 1.028 3.209 4.010 5.545 7.547 5.611-2.765 2.167-6.248 3.458-10.033 3.458-0.652 0-1.295-0.037-1.927-0.112 3.575 2.291 7.82 3.629 12.383 3.629z"/></svg>
